<svg xmlns="http://www.w3.org/2000/svg" viewBox="0 0 41 41"><rect width="41" height="41" rx="3" fill="#fff"/><path d="M12.5 4L12.5 4Q13 4 13 4.5L13 4.5Q13 5 12.5 5L12.5 5Q12 5 12 4.5L12 4.5Q12 4 12.5 4ZM15.5 4L15.5 4Q16 4 16 4.5L16 4.5Q16 5 15.5 5L15.5 5Q15 5 15 4.5L15 4.5Q15 4 15.5 4ZM18.5 4L18.5 4Q19 4 19 4.5L19 5L18 5L18 4.5Q18 4 18.5 4ZM22.5 4L22.5 4Q23 4 23 4.5L23 4.5Q23 5 22.5 5L22.5 5Q22 5 22 4.5L22 4.5Q22 4 22.5 4ZM25.5 4L26 4L26 5L25 5L25 4.5Q25 4 25.5 4ZM26 4L26.5 4Q27 4 27 4.5L27 5L26 5L26 4ZM28.5 4L28.5 4Q29 4 29 4.5L29 5L28 5L28 4.5Q28 4 28.5 4ZM14.5 5L14.5 5Q15 5 15 5.5L15 5.5Q15 6 14.5 6L14.5 6Q14 6 14 5.5L14 5.5Q14 5 14.5 5ZM16.5 5L16.5 5Q17 5 17 5.5L17 6L16 6L16 5.5Q16 5 16.5 5ZM18 5L19 5L19 6L18 6L18 5ZM19 5L20 5L20 6L19 6L19 5ZM20 5L20.5 5Q21 5 21 5.5L21 6L20 6L20 5ZM23.5 5L23.5 5Q24 5 24 5.5L24 5.5Q24 6 23.5 6L23.5 6Q23 6 23 5.5L23 5.5Q23 5 23.5 5ZM25 5L26 5L26 6L25 6L25 5ZM26 5L27 5L27 5.5Q27 6 26.5 6L26 6L26 5ZM28 5L29 5L29 6L28 6L28 5ZM12.5 6L12.5 6Q13 6 13 6.5L13 6.5Q13 7 12.5 7L12.5 7Q12 7 12 6.5L12 6.5Q12 6 12.5 6ZM16 6L17 6L17 6.5Q17 7 16.5 7L16.5 7Q16 7 16 6.5L16 6ZM18 6L19 6L19 6.5Q19 7 18.5 7L18.5 7Q18 7 18 6.5L18 6ZM20 6L21 6L21 6.5Q21 7 20.5 7L20.5 7Q20 7 20 6.5L20 6ZM22.5 6L22.5 6Q23 6 23 6.5L23 6.5Q23 7 22.5 7L22.5 7Q22 7 22 6.5L22 6.5Q22 6 22.5 6ZM25 6L26 6L26 7L25 7L25 6ZM27.5 6L28 6L28 7L27 7L27 6.5Q27 6 27.5 6ZM28 6L29 6L29 7L28 7L28 6ZM17.5 7L17.5 7Q18 7 18 7.5L18 8L17 8L17 7.5Q17 7 17.5 7ZM23.5 7L23.5 7Q24 7 24 7.5L24 7.5Q24 8 23.5 8L23.5 8Q23 8 23 7.5L23 7.5Q23 7 23.5 7ZM25 7L26 7L26 8L25 8L25 7ZM27 7L28 7L28 8L27.5 8Q27 8 27 7.5L27 7ZM28 7L29 7L29 8L28 8L28 7ZM12.5 8L12.5 8Q13 8 13 8.5L13 8.5Q13 9 12.5 9L12.5 9Q12 9 12 8.5L12 8.5Q12 8 12.5 8ZM14.5 8L14.5 8Q15 8 15 8.5L15 8.5Q15 9 14.5 9L14.5 9Q14 9 14 8.5L14 8.5Q14 8 14.5 8ZM16.5 8L17 8L17 9L16 9L16 8.5Q16 8 16.5 8ZM17 8L18 8L18 9L17 9L17 8ZM18 8L18.5 8Q19 8 19 8.5L19 9L18 9L18 8ZM22.5 8L22.5 8Q23 8 23 8.5L23 8.5Q23 9 22.5 9L22.5 9Q22 9 22 8.5L22 8.5Q22 8 22.5 8ZM24.5 8L25 8L25 9L24 9L24 8.5Q24 8 24.5 8ZM25 8L26 8L26 9L25 9L25 8ZM28 8L29 8L29 8.5Q29 9 28.5 9L28.5 9Q28 9 28 8.5L28 8ZM16 9L17 9L17 10L16 10L16 9ZM17 9L18 9L18 10L17 10L17 9ZM18 9L19 9L19 10L18 10L18 9ZM20.5 9L21 9L21 10L20 10L20 9.5Q20 9 20.5 9ZM21 9L21.5 9Q22 9 22 9.5L22 9.5Q22 10 21.5 10L21 10L21 9ZM23.5 9L24 9L24 10L23.5 10Q23 10 23 9.5L23 9.5Q23 9 23.5 9ZM24 9L25 9L25 10L24 10L24 9ZM25 9L26 9L26 9.5Q26 10 25.5 10L25 10L25 9ZM12.5 10L12.5 10Q13 10 13 10.5L13 11L12 11L12 10.5Q12 10 12.5 10ZM14.5 10L14.5 10Q15 10 15 10.5L15 10.5Q15 11 14.5 11L14.5 11Q14 11 14 10.5L14 10.5Q14 10 14.5 10ZM16 10L17 10L17 11L16 11L16 10ZM18 10L19 10L19 10.5Q19 11 18.5 11L18.5 11Q18 11 18 10.5L18 10ZM20 10L21 10L21 10.5Q21 11 20.5 11L20.5 11Q20 11 20 10.5L20 10ZM22.5 10L22.5 10Q23 10 23 10.5L23 11L22 11L22 10.5Q22 10 22.5 10ZM24 10L25 10L25 10.5Q25 11 24.5 11L24.5 11Q24 11 24 10.5L24 10ZM26.5 10L26.5 10Q27 10 27 10.5L27 11L26 11L26 10.5Q26 10 26.5 10ZM28.5 10L28.5 10Q29 10 29 10.5L29 10.5Q29 11 28.5 11L28.5 11Q28 11 28 10.5L28 10.5Q28 10 28.5 10ZM12 11L13 11L13 12L12.5 12Q12 12 12 11.5L12 11ZM13 11L13.5 11Q14 11 14 11.5L14 12L13 12L13 11ZM16 11L17 11L17 12L16.5 12Q16 12 16 11.5L16 11ZM17 11L17.5 11Q18 11 18 11.5L18 12L17 12L17 11ZM19.5 11L19.5 11Q20 11 20 11.5L20 11.5Q20 12 19.5 12L19.5 12Q19 12 19 11.5L19 11.5Q19 11 19.5 11ZM21.5 11L22 11L22 12L21 12L21 11.5Q21 11 21.5 11ZM22 11L23 11L23 12L22 12L22 11ZM23 11L23.5 11Q24 11 24 11.5L24 11.5Q24 12 23.5 12L23 12L23 11ZM26 11L27 11L27 12L26 12L26 11ZM27 11L27.5 11Q28 11 28 11.5L28 11.5Q28 12 27.5 12L27 12L27 11ZM9.5 12L10 12L10 13L9.5 13Q9 13 9 12.5L9 12.5Q9 12 9.5 12ZM10 12L10.5 12Q11 12 11 12.5L11 12.5Q11 13 10.5 13L10 13L10 12ZM13 12L14 12L14 13L13 13L13 12ZM14 12L14.5 12Q15 12 15 12.5L15 13L14 13L14 12ZM17 12L18 12L18 13L17 13L17 12ZM20.5 12L21 12L21 13L20.5 13Q20 13 20 12.5L20 12.5Q20 12 20.5 12ZM21 12L22 12L22 12.5Q22 13 21.5 13L21 13L21 12ZM26 12L27 12L27 13L26 13L26 12ZM28.5 12L28.5 12Q29 12 29 12.5L29 12.5Q29 13 28.5 13L28.5 13Q28 13 28 12.5L28 12.5Q28 12 28.5 12ZM30.5 12L30.5 12Q31 12 31 12.5L31 12.5Q31 13 30.5 13L30.5 13Q30 13 30 12.5L30 12.5Q30 12 30.5 12ZM32.5 12L32.5 12Q33 12 33 12.5L33 13L32 13L32 12.5Q32 12 32.5 12ZM34.5 12L34.5 12Q35 12 35 12.5L35 13L34 13L34 12.5Q34 12 34.5 12ZM36.5 12L36.5 12Q37 12 37 12.5L37 12.5Q37 13 36.5 13L36.5 13Q36 13 36 12.5L36 12.5Q36 12 36.5 12ZM4.5 13L4.5 13Q5 13 5 13.5L5 13.5Q5 14 4.5 14L4.5 14Q4 14 4 13.5L4 13.5Q4 13 4.5 13ZM6.5 13L7 13L7 14L6.5 14Q6 14 6 13.5L6 13.5Q6 13 6.5 13ZM7 13L8 13L8 14L7 14L7 13ZM8 13L8.5 13Q9 13 9 13.5L9 14L8 14L8 13ZM11.5 13L11.5 13Q12 13 12 13.5L12 14L11 14L11 13.5Q11 13 11.5 13ZM13 13L14 13L14 14L13 14L13 13ZM14 13L15 13L15 14L14 14L14 13ZM15 13L16 13L16 14L15 14L15 13ZM16 13L17 13L17 14L16 14L16 13ZM17 13L18 13L18 13.5Q18 14 17.5 14L17 14L17 13ZM19.5 13L19.5 13Q20 13 20 13.5L20 14L19 14L19 13.5Q19 13 19.5 13ZM22.5 13L23 13L23 14L22 14L22 13.5Q22 13 22.5 13ZM23 13L24 13L24 14L23 14L23 13ZM24 13L25 13L25 14L24 14L24 13ZM25 13L26 13L26 14L25 14L25 13ZM26 13L27 13L27 14L26 14L26 13ZM27 13L27.5 13Q28 13 28 13.5L28 13.5Q28 14 27.5 14L27 14L27 13ZM29.5 13L29.5 13Q30 13 30 13.5L30 14L29 14L29 13.5Q29 13 29.5 13ZM31.5 13L32 13L32 14L31 14L31 13.5Q31 13 31.5 13ZM32 13L33 13L33 13.5Q33 14 32.5 14L32 14L32 13ZM34 13L35 13L35 13.5Q35 14 34.5 14L34.5 14Q34 14 34 13.5L34 13ZM7 14L8 14L8 15L7.5 15Q7 15 7 14.5L7 14ZM8 14L9 14L9 15L8 15L8 14ZM9 14L10 14L10 15L9 15L9 14ZM10 14L11 14L11 15L10 15L10 14ZM11 14L12 14L12 15L11 15L11 14ZM12 14L13 14L13 15L12 15L12 14ZM13 14L14 14L14 15L13 15L13 14ZM14 14L15 14L15 15L14 15L14 14ZM15 14L16 14L16 14.5Q16 15 15.5 15L15 15L15 14ZM18.5 14L19 14L19 15L18.5 15Q18 15 18 14.5L18 14.5Q18 14 18.5 14ZM19 14L20 14L20 14.5Q20 15 19.5 15L19 15L19 14ZM22 14L23 14L23 15L22 15L22 14ZM23 14L24 14L24 15L23 15L23 14ZM26 14L27 14L27 14.5Q27 15 26.5 15L26.5 15Q26 15 26 14.5L26 14ZM29 14L30 14L30 15L29.5 15Q29 15 29 14.5L29 14ZM30 14L31 14L31 15L30 15L30 14ZM31 14L32 14L32 15L31 15L31 14ZM33.5 14L33.5 14Q34 14 34 14.5L34 15L33 15L33 14.5Q33 14 33.5 14ZM35.5 14L35.5 14Q36 14 36 14.5L36 14.5Q36 15 35.5 15L35.5 15Q35 15 35 14.5L35 14.5Q35 14 35.5 14ZM5.5 15L6 15L6 16L5.5 16Q5 16 5 15.5L5 15.5Q5 15 5.5 15ZM6 15L6.5 15Q7 15 7 15.5L7 16L6 16L6 15ZM8 15L9 15L9 15.5Q9 16 8.5 16L8.5 16Q8 16 8 15.5L8 15ZM20.5 15L20.5 15Q21 15 21 15.5L21 16L20 16L20 15.5Q20 15 20.5 15ZM22 15L23 15L23 16L22 16L22 15ZM23 15L24 15L24 16L23 16L23 15ZM24 15L25 15L25 16L24 16L24 15ZM25 15L25.5 15Q26 15 26 15.5L26 16L25 16L25 15ZM27.5 15L27.5 15Q28 15 28 15.5L28 15.5Q28 16 27.5 16L27.5 16Q27 16 27 15.5L27 15.5Q27 15 27.5 15ZM31 15L32 15L32 16L31 16L31 15ZM33 15L34 15L34 16L33 16L33 15ZM34 15L34.5 15Q35 15 35 15.5L35 15.5Q35 16 34.5 16L34 16L34 15ZM36.5 15L36.5 15Q37 15 37 15.5L37 15.5Q37 16 36.5 16L36.5 16Q36 16 36 15.5L36 15.5Q36 15 36.5 15ZM6 16L7 16L7 17L6 17L6 16ZM7 16L7.5 16Q8 16 8 16.5L8 16.5Q8 17 7.5 17L7 17L7 16ZM9.5 16L10 16L10 17L9 17L9 16.5Q9 16 9.5 16ZM10 16L11 16L11 17L10 17L10 16ZM11 16L11.5 16Q12 16 12 16.5L12 17L11 17L11 16ZM13.5 16L13.5 16Q14 16 14 16.5L14 17L13 17L13 16.5Q13 16 13.5 16ZM15.5 16L15.5 16Q16 16 16 16.5L16 17L15 17L15 16.5Q15 16 15.5 16ZM17.5 16L17.5 16Q18 16 18 16.5L18 16.5Q18 17 17.5 17L17.5 17Q17 17 17 16.5L17 16.5Q17 16 17.5 16ZM19.5 16L20 16L20 17L19 17L19 16.5Q19 16 19.5 16ZM20 16L21 16L21 16.5Q21 17 20.5 17L20 17L20 16ZM22 16L23 16L23 17L22 17L22 16ZM25 16L26 16L26 17L25 17L25 16ZM28.5 16L28.5 16Q29 16 29 16.5L29 16.5Q29 17 28.5 17L28.5 17Q28 17 28 16.5L28 16.5Q28 16 28.5 16ZM30.5 16L31 16L31 17L30 17L30 16.5Q30 16 30.5 16ZM31 16L32 16L32 17L31 17L31 16ZM33 16L34 16L34 17L33 17L33 16ZM35.5 16L35.5 16Q36 16 36 16.5L36 16.5Q36 17 35.5 17L35.5 17Q35 17 35 16.5L35 16.5Q35 16 35.5 16ZM6 17L7 17L7 18L6 18L6 17ZM9 17L10 17L10 17.5Q10 18 9.5 18L9.5 18Q9 18 9 17.5L9 17ZM11 17L12 17L12 18L11.5 18Q11 18 11 17.5L11 17ZM12 17L13 17L13 18L12 18L12 17ZM13 17L14 17L14 17.5Q14 18 13.5 18L13 18L13 17ZM15 17L16 17L16 18L15 18L15 17ZM18.5 17L19 17L19 18L18 18L18 17.5Q18 17 18.5 17ZM19 17L20 17L20 17.5Q20 18 19.5 18L19 18L19 17ZM21.5 17L22 17L22 18L21.5 18Q21 18 21 17.5L21 17.5Q21 17 21.5 17ZM22 17L23 17L23 18L22 18L22 17ZM23 17L24 17L24 18L23 18L23 17ZM24 17L25 17L25 18L24 18L24 17ZM25 17L26 17L26 17.5Q26 18 25.5 18L25 18L25 17ZM27.5 17L27.5 17Q28 17 28 17.5L28 17.5Q28 18 27.5 18L27.5 18Q27 18 27 17.5L27 17.5Q27 17 27.5 17ZM30 17L31 17L31 18L30 18L30 17ZM31 17L32 17L32 17.5Q32 18 31.5 18L31 18L31 17ZM33 17L34 17L34 18L33 18L33 17ZM36.5 17L36.5 17Q37 17 37 17.5L37 17.5Q37 18 36.5 18L36.5 18Q36 18 36 17.5L36 17.5Q36 17 36.5 17ZM6 18L7 18L7 18.5Q7 19 6.5 19L6.5 19Q6 19 6 18.5L6 18ZM10.5 18L10.5 18Q11 18 11 18.5L11 18.5Q11 19 10.5 19L10.5 19Q10 19 10 18.5L10 18.5Q10 18 10.5 18ZM12 18L13 18L13 18.5Q13 19 12.5 19L12.5 19Q12 19 12 18.5L12 18ZM15 18L16 18L16 19L15 19L15 18ZM16 18L16.5 18Q17 18 17 18.5L17 18.5Q17 19 16.5 19L16 19L16 18ZM18 18L19 18L19 18.5Q19 19 18.5 19L18.5 19Q18 19 18 18.5L18 18ZM23 18L24 18L24 19L23 19L23 18ZM26.5 18L26.5 18Q27 18 27 18.5L27 18.5Q27 19 26.5 19L26.5 19Q26 19 26 18.5L26 18.5Q26 18 26.5 18ZM29.5 18L30 18L30 19L29 19L29 18.5Q29 18 29.5 18ZM30 18L31 18L31 18.5Q31 19 30.5 19L30 19L30 18ZM33 18L34 18L34 19L33 19L33 18ZM34 18L35 18L35 19L34 19L34 18ZM35 18L35.5 18Q36 18 36 18.5L36 18.5Q36 19 35.5 19L35 19L35 18ZM4.5 19L4.5 19Q5 19 5 19.5L5 19.5Q5 20 4.5 20L4.5 20Q4 20 4 19.5L4 19.5Q4 19 4.5 19ZM8.5 19L8.5 19Q9 19 9 19.5L9 19.5Q9 20 8.5 20L8.5 20Q8 20 8 19.5L8 19.5Q8 19 8.5 19ZM11.5 19L11.5 19Q12 19 12 19.5L12 19.5Q12 20 11.5 20L11.5 20Q11 20 11 19.5L11 19.5Q11 19 11.5 19ZM13.5 19L13.5 19Q14 19 14 19.5L14 19.5Q14 20 13.5 20L13.5 20Q13 20 13 19.5L13 19.5Q13 19 13.5 19ZM15 19L16 19L16 19.5Q16 20 15.5 20L15.5 20Q15 20 15 19.5L15 19ZM17.5 19L17.5 19Q18 19 18 19.5L18 19.5Q18 20 17.5 20L17.5 20Q17 20 17 19.5L17 19.5Q17 19 17.5 19ZM19.5 19L19.5 19Q20 19 20 19.5L20 20L19 20L19 19.5Q19 19 19.5 19ZM22.5 19L23 19L23 20L22.5 20Q22 20 22 19.5L22 19.5Q22 19 22.5 19ZM23 19L24 19L24 20L23 20L23 19ZM28.5 19L29 19L29 20L28.5 20Q28 20 28 19.5L28 19.5Q28 19 28.5 19ZM29 19L30 19L30 20L29 20L29 19ZM33 19L34 19L34 20L33.5 20Q33 20 33 19.5L33 19ZM34 19L35 19L35 19.5Q35 20 34.5 20L34 20L34 19ZM36.5 19L36.5 19Q37 19 37 19.5L37 19.5Q37 20 36.5 20L36.5 20Q36 20 36 19.5L36 19.5Q36 19 36.5 19ZM6.5 20L7 20L7 21L6.5 21Q6 21 6 20.5L6 20.5Q6 20 6.5 20ZM7 20L7.5 20Q8 20 8 20.5L8 20.5Q8 21 7.5 21L7 21L7 20ZM10.5 20L10.5 20Q11 20 11 20.5L11 20.5Q11 21 10.5 21L10.5 21Q10 21 10 20.5L10 20.5Q10 20 10.5 20ZM18.5 20L19 20L19 21L18.5 21Q18 21 18 20.5L18 20.5Q18 20 18.5 20ZM19 20L20 20L20 20.5Q20 21 19.5 21L19 21L19 20ZM23 20L24 20L24 21L23.5 21Q23 21 23 20.5L23 20ZM24 20L24.5 20Q25 20 25 20.5L25 20.5Q25 21 24.5 21L24 21L24 20ZM27.5 20L27.5 20Q28 20 28 20.5L28 21L27 21L27 20.5Q27 20 27.5 20ZM29 20L30 20L30 21L29 21L29 20ZM31.5 20L32 20L32 21L31.5 21Q31 21 31 20.5L31 20.5Q31 20 31.5 20ZM32 20L32.5 20Q33 20 33 20.5L33 20.5Q33 21 32.5 21L32 21L32 20ZM12.5 21L13 21L13 22L12.5 22Q12 22 12 21.5L12 21.5Q12 21 12.5 21ZM13 21L14 21L14 22L13 22L13 21ZM14 21L15 21L15 22L14 22L14 21ZM15 21L15.5 21Q16 21 16 21.5L16 22L15 22L15 21ZM21.5 21L21.5 21Q22 21 22 21.5L22 22L21 22L21 21.5Q21 21 21.5 21ZM27 21L28 21L28 22L27 22L27 21ZM28 21L29 21L29 22L28 22L28 21ZM29 21L30 21L30 22L29 22L29 21ZM30 21L30.5 21Q31 21 31 21.5L31 22L30 22L30 21ZM36.5 21L36.5 21Q37 21 37 21.5L37 22L36 22L36 21.5Q36 21 36.5 21ZM5.5 22L6 22L6 23L5 23L5 22.5Q5 22 5.5 22ZM6 22L7 22L7 23L6 23L6 22ZM7 22L8 22L8 23L7 23L7 22ZM8 22L9 22L9 23L8 23L8 22ZM9 22L10 22L10 23L9 23L9 22ZM10 22L10.5 22Q11 22 11 22.5L11 22.5Q11 23 10.5 23L10 23L10 22ZM14 22L15 22L15 23L14.5 23Q14 23 14 22.5L14 22ZM15 22L16 22L16 23L15 23L15 22ZM16 22L16.5 22Q17 22 17 22.5L17 23L16 23L16 22ZM18.5 22L18.5 22Q19 22 19 22.5L19 23L18 23L18 22.5Q18 22 18.5 22ZM21 22L22 22L22 23L21 23L21 22ZM23.5 22L24 22L24 23L23 23L23 22.5Q23 22 23.5 22ZM24 22L25 22L25 23L24 23L24 22ZM25 22L25.5 22Q26 22 26 22.5L26 22.5Q26 23 25.5 23L25 23L25 22ZM27 22L28 22L28 23L27 23L27 22ZM29 22L30 22L30 23L29 23L29 22ZM30 22L31 22L31 22.5Q31 23 30.5 23L30 23L30 22ZM32.5 22L33 22L33 23L32 23L32 22.5Q32 22 32.5 22ZM33 22L34 22L34 23L33 23L33 22ZM34 22L34.5 22Q35 22 35 22.5L35 23L34 23L34 22ZM36 22L37 22L37 22.5Q37 23 36.5 23L36.5 23Q36 23 36 22.5L36 22ZM4.5 23L5 23L5 24L4 24L4 23.5Q4 23 4.5 23ZM5 23L6 23L6 24L5 24L5 23ZM8 23L9 23L9 24L8 24L8 23ZM9 23L10 23L10 24L9 24L9 23ZM11.5 23L11.5 23Q12 23 12 23.5L12 24L11 24L11 23.5Q11 23 11.5 23ZM16 23L17 23L17 23.5Q17 24 16.5 24L16.5 24Q16 24 16 23.5L16 23ZM18 23L19 23L19 24L18 24L18 23ZM19 23L19.5 23Q20 23 20 23.5L20 23.5Q20 24 19.5 24L19 24L19 23ZM21 23L22 23L22 24L21.5 24Q21 24 21 23.5L21 23ZM22 23L23 23L23 24L22 24L22 23ZM23 23L24 23L24 23.5Q24 24 23.5 24L23 24L23 23ZM26.5 23L27 23L27 24L26.5 24Q26 24 26 23.5L26 23.5Q26 23 26.5 23ZM27 23L28 23L28 24L27 24L27 23ZM28 23L29 23L29 24L28 24L28 23ZM29 23L30 23L30 24L29 24L29 23ZM31.5 23L32 23L32 24L31 24L31 23.5Q31 23 31.5 23ZM32 23L33 23L33 24L32 24L32 23ZM33 23L34 23L34 24L33 24L33 23ZM34 23L35 23L35 24L34 24L34 23ZM35 23L35.5 23Q36 23 36 23.5L36 23.5Q36 24 35.5 24L35 24L35 23ZM4 24L5 24L5 25L4 25L4 24ZM5 24L6 24L6 25L5 25L5 24ZM8 24L9 24L9 25L8.5 25Q8 25 8 24.5L8 24ZM9 24L10 24L10 25L9 25L9 24ZM10 24L11 24L11 25L10 25L10 24ZM11 24L12 24L12 25L11 25L11 24ZM13.5 24L13.5 24Q14 24 14 24.5L14 25L13 25L13 24.5Q13 24 13.5 24ZM17.5 24L18 24L18 25L17 25L17 24.5Q17 24 17.5 24ZM18 24L19 24L19 25L18 25L18 24ZM22 24L23 24L23 24.5Q23 25 22.5 25L22.5 25Q22 25 22 24.5L22 24ZM28 24L29 24L29 25L28.5 25Q28 25 28 24.5L28 24ZM29 24L30 24L30 24.5Q30 25 29.5 25L29 25L29 24ZM31 24L32 24L32 25L31 25L31 24ZM32 24L33 24L33 25L32 25L32 24ZM33 24L34 24L34 25L33 25L33 24ZM36.5 24L36.5 24Q37 24 37 24.5L37 24.5Q37 25 36.5 25L36.5 25Q36 25 36 24.5L36 24.5Q36 24 36.5 24ZM4 25L5 25L5 26L4 26L4 25ZM5 25L6 25L6 26L5 26L5 25ZM6 25L7 25L7 26L6 26L6 25ZM7 25L7.5 25Q8 25 8 25.5L8 26L7 26L7 25ZM9 25L10 25L10 26L9 26L9 25ZM11 25L12 25L12 26L11.5 26Q11 26 11 25.5L11 25ZM12 25L13 25L13 26L12 26L12 25ZM13 25L14 25L14 25.5Q14 26 13.5 26L13 26L13 25ZM15.5 25L15.5 25Q16 25 16 25.5L16 25.5Q16 26 15.5 26L15.5 26Q15 26 15 25.5L15 25.5Q15 25 15.5 25ZM17 25L18 25L18 26L17.5 26Q17 26 17 25.5L17 25ZM18 25L19 25L19 26L18 26L18 25ZM19 25L19.5 25Q20 25 20 25.5L20 26L19 26L19 25ZM23.5 25L24 25L24 26L23 26L23 25.5Q23 25 23.5 25ZM24 25L25 25L25 26L24 26L24 25ZM25 25L26 25L26 26L25 26L25 25ZM26 25L27 25L27 26L26 26L26 25ZM27 25L27.5 25Q28 25 28 25.5L28 25.5Q28 26 27.5 26L27 26L27 25ZM31 25L32 25L32 26L31.5 26Q31 26 31 25.5L31 25ZM32 25L33 25L33 26L32 26L32 25ZM33 25L34 25L34 26L33 26L33 25ZM4 26L5 26L5 27L4 27L4 26ZM7 26L8 26L8 27L7.5 27Q7 27 7 26.5L7 26ZM8 26L9 26L9 27L8 27L8 26ZM9 26L10 26L10 27L9 27L9 26ZM10 26L10.5 26Q11 26 11 26.5L11 26.5Q11 27 10.5 27L10 27L10 26ZM12 26L13 26L13 26.5Q13 27 12.5 27L12.5 27Q12 27 12 26.5L12 26ZM14.5 26L14.5 26Q15 26 15 26.5L15 27L14 27L14 26.5Q14 26 14.5 26ZM16.5 26L16.5 26Q17 26 17 26.5L17 27L16 27L16 26.5Q16 26 16.5 26ZM18 26L19 26L19 27L18 27L18 26ZM19 26L20 26L20 27L19 27L19 26ZM20 26L20.5 26Q21 26 21 26.5L21 26.5Q21 27 20.5 27L20 27L20 26ZM22.5 26L23 26L23 27L22.5 27Q22 27 22 26.5L22 26.5Q22 26 22.5 26ZM23 26L24 26L24 26.5Q24 27 23.5 27L23 27L23 26ZM25 26L26 26L26 26.5Q26 27 25.5 27L25.5 27Q25 27 25 26.5L25 26ZM28.5 26L28.5 26Q29 26 29 26.5L29 26.5Q29 27 28.5 27L28.5 27Q28 27 28 26.5L28 26.5Q28 26 28.5 26ZM33 26L34 26L34 27L33 27L33 26ZM35.5 26L35.5 26Q36 26 36 26.5L36 26.5Q36 27 35.5 27L35.5 27Q35 27 35 26.5L35 26.5Q35 26 35.5 26ZM4 27L5 27L5 28L4 28L4 27ZM6.5 27L6.5 27Q7 27 7 27.5L7 27.5Q7 28 6.5 28L6.5 28Q6 28 6 27.5L6 27.5Q6 27 6.5 27ZM9 27L10 27L10 27.5Q10 28 9.5 28L9.5 28Q9 28 9 27.5L9 27ZM13.5 27L14 27L14 28L13 28L13 27.5Q13 27 13.5 27ZM14 27L15 27L15 28L14 28L14 27ZM15 27L16 27L16 28L15 28L15 27ZM16 27L17 27L17 27.5Q17 28 16.5 28L16 28L16 27ZM18 27L19 27L19 27.5Q19 28 18.5 28L18.5 28Q18 28 18 27.5L18 27ZM24.5 27L24.5 27Q25 27 25 27.5L25 27.5Q25 28 24.5 28L24.5 28Q24 28 24 27.5L24 27.5Q24 27 24.5 27ZM27.5 27L27.5 27Q28 27 28 27.5L28 27.5Q28 28 27.5 28L27.5 28Q27 28 27 27.5L27 27.5Q27 27 27.5 27ZM31.5 27L31.5 27Q32 27 32 27.5L32 28L31 28L31 27.5Q31 27 31.5 27ZM33 27L34 27L34 28L33 28L33 27ZM34 27L34.5 27Q35 27 35 27.5L35 27.5Q35 28 34.5 28L34 28L34 27ZM36.5 27L36.5 27Q37 27 37 27.5L37 27.5Q37 28 36.5 28L36.5 28Q36 28 36 27.5L36 27.5Q36 27 36.5 27ZM4 28L5 28L5 29L4.5 29Q4 29 4 28.5L4 28ZM5 28L5.5 28Q6 28 6 28.5L6 28.5Q6 29 5.5 29L5 29L5 28ZM7.5 28L8 28L8 29L7.5 29Q7 29 7 28.5L7 28.5Q7 28 7.5 28ZM8 28L8.5 28Q9 28 9 28.5L9 28.5Q9 29 8.5 29L8 29L8 28ZM10.5 28L10.5 28Q11 28 11 28.5L11 28.5Q11 29 10.5 29L10.5 29Q10 29 10 28.5L10 28.5Q10 28 10.5 28ZM12.5 28L13 28L13 29L12 29L12 28.5Q12 28 12.5 28ZM13 28L14 28L14 28.5Q14 29 13.5 29L13 29L13 28ZM19.5 28L20 28L20 29L19.5 29Q19 29 19 28.5L19 28.5Q19 28 19.5 28ZM20 28L21 28L21 29L20 29L20 28ZM21 28L21.5 28Q22 28 22 28.5L22 28.5Q22 29 21.5 29L21 29L21 28ZM28.5 28L29 28L29 29L28 29L28 28.5Q28 28 28.5 28ZM29 28L30 28L30 29L29 29L29 28ZM30 28L31 28L31 29L30 29L30 28ZM31 28L32 28L32 29L31 29L31 28ZM32 28L33 28L33 29L32 29L32 28ZM33 28L34 28L34 29L33 29L33 28ZM12 29L13 29L13 29.5Q13 30 12.5 30L12.5 30Q12 30 12 29.5L12 29ZM14.5 29L14.5 29Q15 29 15 29.5L15 29.5Q15 30 14.5 30L14.5 30Q14 30 14 29.5L14 29.5Q14 29 14.5 29ZM17.5 29L18 29L18 30L17 30L17 29.5Q17 29 17.5 29ZM18 29L18.5 29Q19 29 19 29.5L19 30L18 30L18 29ZM22.5 29L22.5 29Q23 29 23 29.5L23 29.5Q23 30 22.5 30L22.5 30Q22 30 22 29.5L22 29.5Q22 29 22.5 29ZM24.5 29L24.5 29Q25 29 25 29.5L25 30L24 30L24 29.5Q24 29 24.5 29ZM28 29L29 29L29 30L28 30L28 29ZM32 29L33 29L33 30L32 30L32 29ZM33 29L34 29L34 30L33 30L33 29ZM35.5 29L36 29L36 30L35 30L35 29.5Q35 29 35.5 29ZM36 29L36.5 29Q37 29 37 29.5L37 29.5Q37 30 36.5 30L36 30L36 29ZM15.5 30L15.5 30Q16 30 16 30.5L16 30.5Q16 31 15.5 31L15.5 31Q15 31 15 30.5L15 30.5Q15 30 15.5 30ZM17 30L18 30L18 31L17 31L17 30ZM18 30L19 30L19 31L18 31L18 30ZM21.5 30L21.5 30Q22 30 22 30.5L22 30.5Q22 31 21.5 31L21.5 31Q21 31 21 30.5L21 30.5Q21 30 21.5 30ZM23.5 30L24 30L24 31L23 31L23 30.5Q23 30 23.5 30ZM24 30L25 30L25 31L24 31L24 30ZM25 30L25.5 30Q26 30 26 30.5L26 30.5Q26 31 25.5 31L25 31L25 30ZM27.5 30L28 30L28 31L27.5 31Q27 31 27 30.5L27 30.5Q27 30 27.5 30ZM28 30L29 30L29 31L28 31L28 30ZM30.5 30L30.5 30Q31 30 31 30.5L31 30.5Q31 31 30.5 31L30.5 31Q30 31 30 30.5L30 30.5Q30 30 30.5 30ZM32 30L33 30L33 31L32 31L32 30ZM33 30L34 30L34 31L33 31L33 30ZM35 30L36 30L36 31L35 31L35 30ZM12.5 31L12.5 31Q13 31 13 31.5L13 31.5Q13 32 12.5 32L12.5 32Q12 32 12 31.5L12 31.5Q12 31 12.5 31ZM16.5 31L17 31L17 32L16 32L16 31.5Q16 31 16.5 31ZM17 31L18 31L18 32L17 32L17 31ZM18 31L19 31L19 32L18 32L18 31ZM19 31L19.5 31Q20 31 20 31.5L20 32L19 32L19 31ZM22.5 31L23 31L23 32L22 32L22 31.5Q22 31 22.5 31ZM23 31L24 31L24 31.5Q24 32 23.5 32L23 32L23 31ZM28 31L29 31L29 32L28 32L28 31ZM32 31L33 31L33 32L32 32L32 31ZM33 31L34 31L34 32L33 32L33 31ZM34 31L35 31L35 32L34 32L34 31ZM35 31L36 31L36 32L35 32L35 31ZM14.5 32L15 32L15 33L14.5 33Q14 33 14 32.5L14 32.5Q14 32 14.5 32ZM15 32L16 32L16 33L15 33L15 32ZM16 32L17 32L17 32.5Q17 33 16.5 33L16 33L16 32ZM19 32L20 32L20 33L19 33L19 32ZM21.5 32L22 32L22 33L21 33L21 32.5Q21 32 21.5 32ZM22 32L23 32L23 32.5Q23 33 22.5 33L22 33L22 32ZM24.5 32L25 32L25 33L24 33L24 32.5Q24 32 24.5 32ZM25 32L25.5 32Q26 32 26 32.5L26 32.5Q26 33 25.5 33L25 33L25 32ZM28 32L29 32L29 33L28 33L28 32ZM29 32L30 32L30 33L29 33L29 32ZM30 32L31 32L31 33L30 33L30 32ZM31 32L32 32L32 33L31 33L31 32ZM32 32L33 32L33 33L32 33L32 32ZM35 32L36 32L36 33L35.5 33Q35 33 35 32.5L35 32ZM36 32L36.5 32Q37 32 37 32.5L37 33L36 33L36 32ZM13.5 33L13.5 33Q14 33 14 33.5L14 34L13 34L13 33.5Q13 33 13.5 33ZM18.5 33L19 33L19 34L18.5 34Q18 34 18 33.5L18 33.5Q18 33 18.5 33ZM19 33L20 33L20 33.5Q20 34 19.5 34L19 34L19 33ZM21 33L22 33L22 34L21 34L21 33ZM24 33L25 33L25 33.5Q25 34 24.5 34L24.5 34Q24 34 24 33.5L24 33ZM26.5 33L27 33L27 34L26.5 34Q26 34 26 33.5L26 33.5Q26 33 26.5 33ZM27 33L28 33L28 34L27 34L27 33ZM28 33L29 33L29 34L28 34L28 33ZM29 33L30 33L30 33.5Q30 34 29.5 34L29 34L29 33ZM31 33L32 33L32 34L31.5 34Q31 34 31 33.5L31 33ZM32 33L33 33L33 34L32 34L32 33ZM36 33L37 33L37 34L36 34L36 33ZM13 34L14 34L14 35L13 35L13 34ZM15.5 34L15.5 34Q16 34 16 34.5L16 34.5Q16 35 15.5 35L15.5 35Q15 35 15 34.5L15 34.5Q15 34 15.5 34ZM21 34L22 34L22 35L21 35L21 34ZM23.5 34L23.5 34Q24 34 24 34.5L24 35L23 35L23 34.5Q23 34 23.5 34ZM25.5 34L25.5 34Q26 34 26 34.5L26 34.5Q26 35 25.5 35L25.5 35Q25 35 25 34.5L25 34.5Q25 34 25.5 34ZM27 34L28 34L28 35L27.5 35Q27 35 27 34.5L27 34ZM28 34L29 34L29 34.5Q29 35 28.5 35L28 35L28 34ZM32 34L33 34L33 35L32.5 35Q32 35 32 34.5L32 34ZM33 34L34 34L34 35L33 35L33 34ZM34 34L35 34L35 35L34 35L34 34ZM35 34L36 34L36 35L35 35L35 34ZM36 34L37 34L37 34.5Q37 35 36.5 35L36 35L36 34ZM13 35L14 35L14 36L13 36L13 35ZM16.5 35L16.5 35Q17 35 17 35.5L17 35.5Q17 36 16.5 36L16.5 36Q16 36 16 35.5L16 35.5Q16 35 16.5 35ZM19.5 35L19.5 35Q20 35 20 35.5L20 36L19 36L19 35.5Q19 35 19.5 35ZM21 35L22 35L22 36L21 36L21 35ZM23 35L24 35L24 36L23 36L23 35ZM24 35L24.5 35Q25 35 25 35.5L25 35.5Q25 36 24.5 36L24 36L24 35ZM26.5 35L26.5 35Q27 35 27 35.5L27 35.5Q27 36 26.5 36L26.5 36Q26 36 26 35.5L26 35.5Q26 35 26.5 35ZM29.5 35L30 35L30 36L29.5 36Q29 36 29 35.5L29 35.5Q29 35 29.5 35ZM30 35L30.5 35Q31 35 31 35.5L31 35.5Q31 36 30.5 36L30 36L30 35ZM33 35L34 35L34 36L33 36L33 35ZM34 35L35 35L35 35.5Q35 36 34.5 36L34 36L34 35ZM13 36L14 36L14 37L13.5 37Q13 37 13 36.5L13 36ZM14 36L15 36L15 37L14 37L14 36ZM15 36L15.5 36Q16 36 16 36.5L16 36.5Q16 37 15.5 37L15 37L15 36ZM17.5 36L17.5 36Q18 36 18 36.5L18 36.5Q18 37 17.5 37L17.5 37Q17 37 17 36.5L17 36.5Q17 36 17.5 36ZM19 36L20 36L20 37L19.5 37Q19 37 19 36.5L19 36ZM20 36L21 36L21 37L20 37L20 36ZM21 36L22 36L22 36.5Q22 37 21.5 37L21 37L21 36ZM23 36L24 36L24 36.5Q24 37 23.5 37L23.5 37Q23 37 23 36.5L23 36ZM25.5 36L25.5 36Q26 36 26 36.5L26 36.5Q26 37 25.5 37L25.5 37Q25 37 25 36.5L25 36.5Q25 36 25.5 36ZM27.5 36L28 36L28 37L27.5 37Q27 37 27 36.5L27 36.5Q27 36 27.5 36ZM28 36L28.5 36Q29 36 29 36.5L29 36.5Q29 37 28.5 37L28 37L28 36ZM33 36L34 36L34 36.5Q34 37 33.5 37L33.5 37Q33 37 33 36.5L33 36ZM35.5 36L35.5 36Q36 36 36 36.5L36 36.5Q36 37 35.5 37L35.5 37Q35 37 35 36.5L35 36.5Q35 36 35.5 36Z" fill="#0a0b10"/><path d="M5.4 4L9.6 4Q11 4 11 5.4L11 9.6Q11 11 9.6 11L5.4 11Q4 11 4 9.6L4 5.4Q4 4 5.4 4ZM6 5Q5 5 5 6L5 9Q5 10 6 10L9 10Q10 10 10 9L10 6Q10 5 9 5ZM6.9 6L8.1 6Q9 6 9 6.9L9 8.1Q9 9 8.1 9L6.9 9Q6 9 6 8.1L6 6.9Q6 6 6.9 6ZM31.4 4L35.6 4Q37 4 37 5.4L37 9.6Q37 11 35.6 11L31.4 11Q30 11 30 9.6L30 5.4Q30 4 31.4 4ZM32 5Q31 5 31 6L31 9Q31 10 32 10L35 10Q36 10 36 9L36 6Q36 5 35 5ZM32.9 6L34.1 6Q35 6 35 6.9L35 8.1Q35 9 34.1 9L32.9 9Q32 9 32 8.1L32 6.9Q32 6 32.9 6ZM5.4 30L9.6 30Q11 30 11 31.4L11 35.6Q11 37 9.6 37L5.4 37Q4 37 4 35.6L4 31.4Q4 30 5.4 30ZM6 31Q5 31 5 32L5 35Q5 36 6 36L9 36Q10 36 10 35L10 32Q10 31 9 31ZM6.9 32L8.1 32Q9 32 9 32.9L9 34.1Q9 35 8.1 35L6.9 35Q6 35 6 34.1L6 32.9Q6 32 6.9 32Z" fill="#0a0b10" fill-rule="evenodd"/></svg>